<mxfile host="app.diagrams.net" modified="2023-11-03T03:37:00.173Z" agent="Mozilla/5.0 (Windows NT 10.0; Win64; x64) AppleWebKit/537.36 (KHTML, like Gecko) Chrome/117.0.0.0 Safari/537.36" etag="dYINnBVW4ShA6E7snbHJ" version="22.0.8" type="github">
  <diagram id="kgpKYQtTHZ0yAKxKKP6v" name="Page-1">
    <mxGraphModel dx="1050" dy="675" grid="0" gridSize="10" guides="1" tooltips="1" connect="1" arrows="1" fold="1" page="1" pageScale="1" pageWidth="850" pageHeight="1100" math="0" shadow="0">
      <root>
        <mxCell id="0" />
        <mxCell id="1" parent="0" />
        <mxCell id="7Kd2hUJIXaFdxS-v65cK-2" value="View&amp;nbsp;" style="swimlane;whiteSpace=wrap;html=1;" vertex="1" parent="1">
          <mxGeometry x="186" y="163" width="414" height="233" as="geometry">
            <mxRectangle x="178" y="159" width="65" height="26" as="alternateBounds" />
          </mxGeometry>
        </mxCell>
        <mxCell id="7Kd2hUJIXaFdxS-v65cK-5" value="" style="swimlane;startSize=0;" vertex="1" parent="7Kd2hUJIXaFdxS-v65cK-2">
          <mxGeometry x="291" y="104" width="117" height="98" as="geometry" />
        </mxCell>
        <mxCell id="7Kd2hUJIXaFdxS-v65cK-12" value="&lt;div style=&quot;font-family: Consolas, &amp;quot;Courier New&amp;quot;, monospace; font-size: 14px; line-height: 19px;&quot;&gt;&lt;span style=&quot;background-color: rgb(255, 255, 255);&quot;&gt;&lt;font color=&quot;#1a1a1a&quot;&gt;PlayFragment&lt;/font&gt;&lt;/span&gt;&lt;/div&gt;" style="text;html=1;strokeColor=none;fillColor=none;align=center;verticalAlign=middle;whiteSpace=wrap;rounded=0;" vertex="1" parent="7Kd2hUJIXaFdxS-v65cK-5">
          <mxGeometry x="28.5" y="35" width="60" height="30" as="geometry" />
        </mxCell>
        <mxCell id="7Kd2hUJIXaFdxS-v65cK-4" value="" style="swimlane;startSize=0;" vertex="1" parent="7Kd2hUJIXaFdxS-v65cK-2">
          <mxGeometry x="139" y="103" width="144" height="100" as="geometry" />
        </mxCell>
        <mxCell id="7Kd2hUJIXaFdxS-v65cK-17" value="XXXFragment" style="text;html=1;strokeColor=none;fillColor=none;align=center;verticalAlign=middle;whiteSpace=wrap;rounded=0;" vertex="1" parent="7Kd2hUJIXaFdxS-v65cK-4">
          <mxGeometry x="38" y="27" width="60" height="30" as="geometry" />
        </mxCell>
        <mxCell id="7Kd2hUJIXaFdxS-v65cK-3" value="" style="swimlane;startSize=0;" vertex="1" parent="1">
          <mxGeometry x="200" y="265" width="116" height="100" as="geometry" />
        </mxCell>
        <mxCell id="7Kd2hUJIXaFdxS-v65cK-10" value="&lt;div style=&quot;font-family: Consolas, &amp;quot;Courier New&amp;quot;, monospace; font-size: 14px; line-height: 19px;&quot;&gt;&lt;span style=&quot;background-color: rgb(255, 255, 255);&quot;&gt;RankFragment&lt;/span&gt;&lt;/div&gt;" style="text;html=1;strokeColor=none;fillColor=none;align=center;verticalAlign=middle;whiteSpace=wrap;rounded=0;" vertex="1" parent="7Kd2hUJIXaFdxS-v65cK-3">
          <mxGeometry x="23.5" y="28" width="60" height="30" as="geometry" />
        </mxCell>
        <mxCell id="7Kd2hUJIXaFdxS-v65cK-9" value="homeFragment" style="text;html=1;align=center;verticalAlign=middle;resizable=0;points=[];autosize=1;strokeColor=none;fillColor=none;" vertex="1" parent="1">
          <mxGeometry x="329" y="203" width="99" height="26" as="geometry" />
        </mxCell>
        <mxCell id="7Kd2hUJIXaFdxS-v65cK-18" value="ViewModel" style="swimlane;whiteSpace=wrap;html=1;" vertex="1" parent="1">
          <mxGeometry x="186" y="412" width="417" height="140" as="geometry" />
        </mxCell>
        <mxCell id="7Kd2hUJIXaFdxS-v65cK-20" value="" style="swimlane;startSize=0;" vertex="1" parent="7Kd2hUJIXaFdxS-v65cK-18">
          <mxGeometry x="28" y="61" width="171" height="49" as="geometry" />
        </mxCell>
        <mxCell id="7Kd2hUJIXaFdxS-v65cK-21" value="&lt;div style=&quot;font-family: Consolas, &amp;quot;Courier New&amp;quot;, monospace; font-size: 14px; line-height: 19px;&quot;&gt;&lt;span style=&quot;background-color: rgb(255, 255, 255);&quot;&gt;HomeViewModel&lt;/span&gt;&lt;/div&gt;" style="text;html=1;align=center;verticalAlign=middle;resizable=0;points=[];autosize=1;strokeColor=none;fillColor=none;" vertex="1" parent="7Kd2hUJIXaFdxS-v65cK-20">
          <mxGeometry x="41" y="7" width="118" height="31" as="geometry" />
        </mxCell>
        <mxCell id="7Kd2hUJIXaFdxS-v65cK-25" value="" style="swimlane;startSize=0;" vertex="1" parent="7Kd2hUJIXaFdxS-v65cK-18">
          <mxGeometry x="237" y="59" width="154" height="49" as="geometry" />
        </mxCell>
        <mxCell id="7Kd2hUJIXaFdxS-v65cK-26" value="&lt;div style=&quot;font-family: Consolas, &amp;quot;Courier New&amp;quot;, monospace; font-size: 14px; line-height: 19px;&quot;&gt;&lt;span style=&quot;background-color: rgb(255, 255, 255);&quot;&gt;XX&lt;/span&gt;&lt;span style=&quot;background-color: rgb(255, 255, 255);&quot;&gt;ViewModel&lt;/span&gt;&lt;/div&gt;" style="text;html=1;align=center;verticalAlign=middle;resizable=0;points=[];autosize=1;strokeColor=none;fillColor=none;" vertex="1" parent="7Kd2hUJIXaFdxS-v65cK-18">
          <mxGeometry x="260" y="68" width="103" height="31" as="geometry" />
        </mxCell>
        <mxCell id="7Kd2hUJIXaFdxS-v65cK-22" value="Model" style="swimlane;whiteSpace=wrap;html=1;" vertex="1" parent="1">
          <mxGeometry x="186" y="568" width="419" height="91" as="geometry" />
        </mxCell>
        <mxCell id="7Kd2hUJIXaFdxS-v65cK-23" value="" style="swimlane;startSize=0;" vertex="1" parent="7Kd2hUJIXaFdxS-v65cK-22">
          <mxGeometry x="65" y="32" width="300" height="34" as="geometry" />
        </mxCell>
        <mxCell id="7Kd2hUJIXaFdxS-v65cK-24" value="&lt;div style=&quot;font-family: Consolas, &amp;quot;Courier New&amp;quot;, monospace; font-size: 14px; line-height: 19px;&quot;&gt;&lt;div style=&quot;line-height: 19px;&quot;&gt;&lt;span style=&quot;background-color: rgb(255, 255, 255);&quot;&gt;XXXRepository&lt;/span&gt;&lt;/div&gt;&lt;/div&gt;" style="text;html=1;align=center;verticalAlign=middle;resizable=0;points=[];autosize=1;strokeColor=none;fillColor=none;" vertex="1" parent="1">
          <mxGeometry x="319" y="604" width="118" height="31" as="geometry" />
        </mxCell>
      </root>
    </mxGraphModel>
  </diagram>
</mxfile>
